Plot:
Mr. Church reunites the Expendables for what should be an easy paycheck, but when one of their men is murdered on the job, their 

quest for revenge puts them deep in enemy territory and up against an unexpected threat.up as they look to walk down the aisle 

together.

Sources - audio-echo line/ cam audio.....Thanks :P
          VIDEO-italian /720p hd cam.....Thanks :P
Video
ID                                       : 0
Format                                   : MPEG-4 Visual
Format profile                           : Simple@L5
Format settings, BVOP                    : No
Format settings, QPel                    : No
Format settings, GMC                     : No warppoints
Format settings, Matrix                  : Default (H.263)
Codec ID                                 : XVID
Codec ID/Hint                            : XviD
Duration                                 : 1h 30mn
Bit rate                                 : 1 944 Kbps
Width                                    : 720 pixels
Height                                   : 272 pixels
Display aspect ratio                     : 2.647
Frame rate                               : 29.970 fps
Color space                              : YUV
Chroma subsampling                       : 4:2:0
Bit depth                                : 8 bits
Scan type                                : Progressive
Compression mode                         : Lossy
Bits/(Pixel*Frame)                       : 0.331
Stream size                              : 1.23 GiB (94%)
Writing library                          : XviD 64

Audio
ID                                       : 1
Format                                   : MPEG Audio
Format version                           : Version 1
Format profile                           : Layer 3
Mode                                     : Joint stereo
Mode extension                           : MS Stereo
Codec ID                                 : 55
Codec ID/Hint                            : MP3
Duration                                 : 1h 30mn
Bit rate mode                            : Constant
Bit rate                                 : 128 Kbps
Channel(s)                               : 2 channels
Sampling rate                            : 48.0 KHz
Compression mode                         : Lossy
Stream size                              : 82.9 MiB (6%)
Alignment                                : Split accross interleaves
Interleave, duration                     : 16364 ms (490.42 video frames)

Notes -

the new video here is okay it has its good and down sides has the occasional arabic subs..... shame about the colors. the source 

it self lacked colour :(.. messed with a few settings got it best i could without over doing the colours... used the italian 

video at start and towards the middle of the movie so around 1min 10 secs of italian video has been used here.. then the rest 

of the movie is of the new cam... this new cam has its own issues.. not saying it is better but still a new video.. so take it or leave it.. then synced line and muxed over encode... hopes for better video...


Don`t forget to visit http://www.aviara.ro